<?xml version="1.0" encoding="UTF-8" ?>
<!DOCTYPE svg PUBLIC "-//W3C//DTD SVG 1.1//EN" "http://www.w3.org/Graphics/SVG/1.1/DTD/svg11.dtd">
<svg width="156pt" height="100pt" viewBox="0 0 156 100" version="1.1" xmlns="http://www.w3.org/2000/svg">
<g id="#ab8530ff">
<path fill="#ab8530" opacity="1.00" d=" M 0.82 0.00 L 1.24 0.00 C 7.19 2.59 13.45 4.58 18.95 8.09 C 27.37 13.12 34.16 20.63 38.65 29.32 C 40.05 32.35 43.25 33.61 45.98 35.11 C 50.85 37.73 54.00 42.49 56.80 47.09 C 62.85 57.36 66.80 68.68 70.63 79.92 C 65.98 71.86 61.87 63.40 55.73 56.32 C 49.40 48.14 39.96 43.35 30.85 38.93 C 29.24 38.08 27.36 37.25 26.59 35.46 C 23.21 27.85 23.43 18.65 17.86 12.04 C 13.45 6.41 6.47 4.06 0.82 0.00 Z" />
<path fill="#ab8530" opacity="1.00" d=" M 153.54 0.00 L 155.17 0.00 C 154.33 1.69 152.40 2.14 150.87 2.96 C 145.67 5.38 140.62 8.58 137.24 13.33 C 132.64 19.91 132.70 28.38 129.47 35.55 C 128.60 37.44 126.52 38.21 124.81 39.14 C 118.97 41.88 113.28 45.01 108.03 48.77 C 97.73 56.85 91.77 68.77 85.45 79.90 C 90.24 66.32 94.82 52.25 103.68 40.68 C 106.25 37.09 110.16 34.97 114.01 33.06 C 116.35 32.01 117.37 29.54 118.56 27.45 C 123.97 17.25 133.17 9.35 143.63 4.64 C 146.96 3.15 150.53 2.12 153.54 0.00 Z" />
<path fill="#ab8530" opacity="1.00" d=" M 13.38 57.47 C 10.43 47.43 14.14 36.41 20.70 28.62 C 17.67 41.65 18.05 56.18 25.21 67.85 C 32.06 79.18 43.80 86.29 55.54 91.67 L 55.52 93.31 C 45.92 89.20 36.60 84.25 28.40 77.74 C 21.82 72.41 15.80 65.76 13.38 57.47 Z" />
<path fill="#ab8530" opacity="1.00" d=" M 135.43 28.56 C 142.02 36.57 145.82 47.78 142.56 57.98 C 139.49 67.67 131.78 74.99 123.72 80.73 C 116.70 85.53 109.22 89.82 101.28 92.85 L 99.80 92.00 C 112.05 86.52 124.32 79.14 131.26 67.24 C 138.10 55.64 138.33 41.40 135.43 28.56 Z" />
<path fill="#ab8530" opacity="1.00" d=" M 35.76 49.64 C 37.40 48.66 39.39 50.21 41.10 50.50 C 40.43 52.25 39.33 53.98 39.59 55.93 C 39.80 60.46 44.69 64.26 49.13 63.01 C 51.72 62.52 53.40 60.34 55.06 58.49 C 56.21 59.97 57.38 61.42 58.55 62.88 C 55.03 66.92 49.46 69.50 44.12 67.83 C 36.55 66.01 32.01 56.54 35.76 49.64 Z" />
<path fill="#ab8530" opacity="1.00" d=" M 114.86 50.52 C 116.58 49.99 118.32 49.51 120.04 48.96 C 123.65 55.66 120.33 64.83 113.12 67.41 C 107.53 69.79 101.20 67.32 97.43 62.89 C 98.59 61.42 99.78 59.96 100.94 58.48 C 102.43 60.11 103.82 62.07 106.03 62.77 C 110.59 64.66 116.14 60.81 116.37 55.98 C 116.63 54.02 115.58 52.26 114.86 50.52 Z" />
<path fill="#ab8530" opacity="1.00" d=" M 72.66 79.74 C 73.57 76.58 77.50 76.79 80.09 77.11 C 83.04 77.19 83.97 80.50 84.09 82.93 C 84.74 89.18 81.72 95.03 78.02 99.84 C 73.72 94.24 70.33 86.86 72.66 79.74 Z" />
</g>
</svg>
